<svg width="24" height="24" viewBox="0 0 24 24" fill="none" xmlns="http://www.w3.org/2000/svg">
<path d="M17.2104 6.21006H13.5528C13.0644 6.21006 12.588 6.05646 12.1908 5.77086L9.90241 4.12206C9.50641 3.83646 9.03001 3.68286 8.54041 3.68286H6.87001C4.90321 3.68286 3.30841 5.27766 3.30841 7.24446V10.4077H20.772V9.77166C20.772 7.80486 19.1772 6.21006 17.2104 6.21006Z" fill="#FFBE0A"/>
<path d="M17.2104 5.36998H13.5528C13.5132 5.36998 13.4748 5.36878 13.4352 5.36518C13.164 5.34358 12.9048 5.24998 12.6816 5.08918L10.3932 3.44038C10.2576 3.34318 10.116 3.25678 9.96838 3.18238C9.52579 2.95824 9.03649 2.84188 8.54038 2.84278H6.86998C4.44238 2.84278 2.46838 4.81798 2.46838 7.24438V16.6656C2.46838 19.0932 4.44358 21.0672 6.86998 21.0672H17.2104C19.638 21.0672 21.612 19.092 21.612 16.6656V9.77158C21.612 7.34398 19.6368 5.36998 17.2104 5.36998ZM4.14838 7.24438C4.14838 5.74318 5.36878 4.52278 6.86998 4.52278H8.54158C8.85598 4.52278 9.15718 4.61998 9.41278 4.80358L11.7 6.45238C11.8775 6.58031 12.0682 6.68893 12.2688 6.77638C12.6708 6.95518 13.1052 7.04998 13.5528 7.04998H17.2104C17.2968 7.04998 17.382 7.05478 17.466 7.06198C17.4708 7.06198 17.4756 7.06318 17.4804 7.06318C17.5608 7.07158 17.64 7.08358 17.7192 7.09798C17.7264 7.09918 17.7348 7.10038 17.7432 7.10278C17.8188 7.11838 17.8944 7.13638 17.9676 7.15798C17.9772 7.16038 17.9868 7.16278 17.9964 7.16638C18.0684 7.18798 18.1392 7.21318 18.2076 7.24078C18.2184 7.24438 18.228 7.24918 18.2388 7.25278C18.3072 7.28038 18.3732 7.31158 18.4392 7.34398C18.45 7.34878 18.4596 7.35478 18.4704 7.35958C18.5352 7.39318 18.5976 7.42918 18.66 7.46878L18.6888 7.48678C18.75 7.52638 18.81 7.56838 18.8676 7.61278C18.876 7.61878 18.8844 7.62598 18.8928 7.63318C18.9504 7.67878 19.0068 7.72558 19.0608 7.77598C19.068 7.78198 19.074 7.78918 19.0812 7.79518C19.1352 7.84678 19.188 7.89958 19.2384 7.95598C19.2432 7.96198 19.248 7.96678 19.2528 7.97278C19.3032 8.03038 19.3524 8.09038 19.3992 8.15158L19.4064 8.16238C19.4544 8.22718 19.4988 8.29318 19.5408 8.36158C19.5828 8.42998 19.6212 8.50078 19.656 8.57278C19.6584 8.57758 19.6608 8.58118 19.6632 8.58598C19.6968 8.65558 19.728 8.72758 19.7556 8.79958C19.758 8.80678 19.7616 8.81398 19.764 8.82118C19.7904 8.89198 19.8144 8.96518 19.8348 9.03958C19.8372 9.04918 19.8408 9.05878 19.8432 9.06718C19.8624 9.14038 19.8792 9.21478 19.8924 9.29038C19.8948 9.30118 19.896 9.31198 19.8984 9.32278C19.9104 9.39718 19.92 9.47398 19.926 9.55078C19.926 9.55678 19.9272 9.56278 19.9272 9.56878H4.14838V7.24438ZM17.2104 19.3872H6.86998C5.36878 19.3872 4.14838 18.1668 4.14838 16.6656V11.2476H19.932V16.6656C19.932 18.1656 18.7104 19.3872 17.2104 19.3872Z" fill="#343434"/>
</svg>
