<svg width="24" height="24" viewBox="0 0 24 24" fill="none" xmlns="http://www.w3.org/2000/svg">
<path d="M11.9996 2.35669C6.68245 2.35669 2.35645 6.68269 2.35645 11.9999C2.35645 17.3171 6.68245 21.6431 11.9996 21.6431C17.3168 21.6431 21.6428 17.3171 21.6428 11.9999C21.6428 6.68269 17.3168 2.35669 11.9996 2.35669ZM11.9996 19.9631C7.60884 19.9631 4.03645 16.3907 4.03645 11.9999C4.03645 7.60909 7.60884 4.03669 11.9996 4.03669C16.3904 4.03669 19.9628 7.60909 19.9628 11.9999C19.9628 16.3907 16.3904 19.9631 11.9996 19.9631Z" fill="#5182FF"/>
<path d="M14.2716 8.46456L12.0434 10.6928L9.81518 8.46456C9.4868 8.13618 8.95562 8.13618 8.62724 8.46456C8.29886 8.79294 8.29886 9.32412 8.62724 9.6525L10.8555 11.8807L8.62809 14.1081C8.29971 14.4365 8.29971 14.9677 8.62809 15.2961C8.95647 15.6244 9.48765 15.6244 9.81603 15.2961L12.0443 13.0678L14.2725 15.2961C14.6009 15.6244 15.1321 15.6244 15.4604 15.2961C15.7888 14.9677 15.7888 14.4365 15.4604 14.1081L13.2322 11.8799L15.4604 9.65165C15.7888 9.32327 15.7888 8.79209 15.4604 8.46371C15.1321 8.13533 14.6 8.13618 14.2716 8.46456Z" fill="#5182FF"/>
</svg>
