<svg width="24" height="24" viewBox="0 0 24 24" fill="none" xmlns="http://www.w3.org/2000/svg">
<path d="M17.0698 21.4453H7.37259C4.83819 21.4453 2.77539 19.3837 2.77539 16.8481V7.15091C2.77539 4.61651 4.83819 2.55371 7.37259 2.55371H17.0698C19.6042 2.55371 21.667 4.61651 21.667 7.15091V16.8481C21.667 19.3837 19.6054 21.4453 17.0698 21.4453ZM7.37259 4.23491C5.76459 4.23491 4.45539 5.54291 4.45539 7.15211V16.8493C4.45539 18.4573 5.76339 19.7665 7.37259 19.7665H17.0698C18.6778 19.7665 19.987 18.4585 19.987 16.8493V7.15091C19.987 5.54291 18.679 4.23371 17.0698 4.23371H7.37259V4.23491Z" fill="#009C8E"/>
<path d="M12.2212 17.7673C11.7568 17.7673 11.3812 17.3917 11.3812 16.9273V9.13932C11.3812 8.67492 11.7568 8.29932 12.2212 8.29932C12.6856 8.29932 13.0612 8.67492 13.0612 9.13932V16.9273C13.0612 17.3905 12.6844 17.7673 12.2212 17.7673ZM8.22281 17.7673C7.75841 17.7673 7.38281 17.3917 7.38281 16.9273V13.6033C7.38281 13.1389 7.75841 12.7633 8.22281 12.7633C8.68721 12.7633 9.06281 13.1389 9.06281 13.6033V16.9273C9.06281 17.3905 8.68601 17.7673 8.22281 17.7673ZM16.2196 17.7673C15.7552 17.7673 15.3796 17.3917 15.3796 16.9273V11.8573C15.3796 11.3929 15.7552 11.0173 16.2196 11.0173C16.684 11.0173 17.0596 11.3929 17.0596 11.8573V16.9261C17.0596 17.3905 16.6828 17.7673 16.2196 17.7673Z" fill="#009C8E"/>
</svg>
