<svg width="19" height="20" viewBox="0 0 19 20" fill="none" xmlns="http://www.w3.org/2000/svg">
<path d="M12.5664 19.5663H5.50443C2.49363 19.5663 0.0444336 17.1171 0.0444336 14.1063V5.77348C0.0444336 2.76268 2.49363 0.313477 5.50443 0.313477H12.5664C15.5772 0.313477 18.0264 2.76268 18.0264 5.77348V14.1063C18.0264 17.1171 15.5772 19.5663 12.5664 19.5663ZM5.50443 1.99348C3.42003 1.99348 1.72443 3.68908 1.72443 5.77348V14.1063C1.72443 16.1907 3.42003 17.8863 5.50443 17.8863H12.5664C14.6508 17.8863 16.3464 16.1907 16.3464 14.1063V5.77348C16.3464 3.68908 14.6508 1.99348 12.5664 1.99348H5.50443Z" fill="#5182FF"/>
<path d="M13.1569 8.1424H5.00528C4.54088 8.1424 4.16528 7.7668 4.16528 7.3024C4.16528 6.838 4.54088 6.4624 5.00528 6.4624H13.1569C13.6213 6.4624 13.9969 6.838 13.9969 7.3024C13.9969 7.7668 13.6201 8.1424 13.1569 8.1424ZM10.4989 13.0816H5.00528C4.54088 13.0816 4.16528 12.706 4.16528 12.2416C4.16528 11.7772 4.54088 11.4016 5.00528 11.4016H10.4989C10.9633 11.4016 11.3389 11.7772 11.3389 12.2416C11.3389 12.706 10.9633 13.0816 10.4989 13.0816Z" fill="#5182FF"/>
</svg>
